<?xml version="1.0" encoding="utf-8"?>
<!-- Generator: Adobe Illustrator 21.1.0, SVG Export Plug-In . SVG Version: 6.00 Build 0)  -->
<svg version="1.1" id="Layer_1" xmlns="http://www.w3.org/2000/svg" xmlns:xlink="http://www.w3.org/1999/xlink" x="0px" y="0px"
	 viewBox="0 0 32.3 31.4" style="enable-background:new 0 0 32.3 31.4;" xml:space="preserve">
<style type="text/css">
	.st0{fill-rule:evenodd;clip-rule:evenodd;fill:#FFFFFF;}
</style>
<g>
	<path class="st0" d="M26.5,23.3c-0.4,0-0.8-0.4-0.8-0.8c0-0.4,0.3-0.8,0.8-0.8c0.4,0,0.8,0.3,0.8,0.8
		C27.3,22.9,26.9,23.3,26.5,23.3L26.5,23.3L26.5,23.3z M26.5,20.5c-0.9,0-1.6,0.6-1.9,1.4h-4v-2c0-0.3-0.3-0.6-0.6-0.6
		c-0.3,0-0.6,0.3-0.6,0.6v2.6c0,0.3,0.3,0.6,0.6,0.6h4.5c0.3,1.1,1.4,1.6,2.4,1.3c1-0.3,1.6-1.5,1.3-2.5
		C28.1,21,27.4,20.5,26.5,20.5L26.5,20.5z M6.6,22.5c0,0.5-0.4,0.8-0.8,0.8c-0.4,0-0.8-0.4-0.8-0.8c0-0.4,0.4-0.8,0.8-0.8
		C6.2,21.7,6.6,22,6.6,22.5L6.6,22.5z M12.2,19.3c-0.3,0-0.6,0.3-0.6,0.6v2h-4c-0.3-1-1.4-1.6-2.4-1.3c-1,0.3-1.6,1.5-1.3,2.5
		c0.3,1.1,1.4,1.6,2.4,1.3c0.6-0.2,1.1-0.7,1.3-1.3h4.5c0.3,0,0.6-0.3,0.6-0.6v-2.6C12.8,19.5,12.5,19.3,12.2,19.3z M16.1,27.3
		c-0.4,0-0.8-0.4-0.8-0.8c0-0.5,0.4-0.8,0.8-0.8c0.4,0,0.8,0.4,0.8,0.8S16.6,27.3,16.1,27.3L16.1,27.3z M16.7,24.5v-4.7
		c0-0.3-0.3-0.6-0.6-0.6s-0.6,0.3-0.6,0.6v4.7c-1,0.3-1.6,1.5-1.3,2.5c0.3,1.1,1.4,1.6,2.4,1.3s1.6-1.5,1.3-2.5
		C17.8,25.2,17.3,24.7,16.7,24.5z M11.1,8.8c0.4,0,0.8,0.1,1.2,0.2c0.3,0.1,0.6-0.1,0.7-0.4c0-0.1,0-0.1,0-0.2V8.4
		C12.9,6,14.7,4.1,17,4c2.3-0.1,4.2,1.8,4.2,4.1v0.2c0,0.3,0,0.6-0.1,0.9c-0.1,0.3,0.1,0.7,0.4,0.7c0.1,0,0.1,0,0.2,0h0
		c1.7,0,3.1,1.4,3.2,3.2c0,1.8-1.4,3.2-3.1,3.2H11c-2.1,0-3.7-1.7-3.7-3.9C7.3,10.5,9,8.8,11.1,8.8L11.1,8.8z M11.1,17.6h10.7
		c2.4,0,4.3-2,4.3-4.4c0-2.2-1.6-4.1-3.8-4.4c0-0.1,0-0.3,0-0.4c0-3-2.4-5.5-5.3-5.5c-2.7,0-4.9,2-5.2,4.8c-2.6-0.5-5.2,1.4-5.6,4.1
		c-0.4,2.7,1.3,5.3,4,5.8C10.5,17.6,10.8,17.6,11.1,17.6z"/>
</g>
</svg>
