<?xml version="1.0" encoding="utf-8"?>
<!-- Generator: Adobe Illustrator 19.1.0, SVG Export Plug-In . SVG Version: 6.00 Build 0)  -->
<svg version="1.1" id="Layer_1" xmlns="http://www.w3.org/2000/svg" xmlns:xlink="http://www.w3.org/1999/xlink" x="0px" y="0px"
	 viewBox="0 0 26.6 19.8" style="enable-background:new 0 0 26.6 19.8;" xml:space="preserve">
<style type="text/css">
	.st0{fill-rule:evenodd;clip-rule:evenodd;fill:#FFFFFF;}
</style>
<path class="st0" d="M22.9,5.8l-1,1l-3.2-3.1l1-1c0.2-0.2,0.5-0.3,0.8-0.3c0.3,0,0.5,0.1,0.8,0.3l1.7,1.7c0.2,0.2,0.3,0.4,0.3,0.7
	C23.2,5.4,23.1,5.6,22.9,5.8z M18.1,6.3c0.1-0.1,0.1-0.2,0-0.4c-0.1-0.1-0.2-0.1-0.4,0l-3.9,3.8c-0.1,0.1-0.1,0.2,0,0.4
	c0.1,0.1,0.2,0.1,0.4,0L18.1,6.3z M13.3,13.7l1.3-1.3l-1.7-1.6l-1.3,1.2v0.6h1.1v1H13.3z M18,4.4l3.2,3.1l-7.4,7.3h-3.2v-3.1L18,4.4
	z M19,12.4v2.1c0,0.9-0.3,1.6-0.9,2.2c-0.6,0.6-1.4,0.9-2.2,0.9H6.6c-0.9,0-1.6-0.3-2.2-0.9c-0.6-0.6-0.9-1.3-0.9-2.2v-9
	c0-0.9,0.3-1.6,0.9-2.2s1.4-0.9,2.2-0.9h9.2c0.5,0,0.9,0.1,1.3,0.3c0.1,0.1,0.2,0.1,0.2,0.2c0,0.1,0,0.2-0.1,0.3l-0.5,0.5
	c-0.1,0.1-0.2,0.1-0.4,0.1c-0.2,0-0.3-0.1-0.5-0.1H6.6c-0.5,0-0.9,0.2-1.2,0.5C5,4.5,4.9,4.9,4.9,5.4v9c0,0.5,0.2,0.9,0.5,1.2
	c0.3,0.3,0.8,0.5,1.2,0.5h9.2c0.5,0,0.9-0.2,1.2-0.5c0.4-0.3,0.5-0.7,0.5-1.2v-1.4c0-0.1,0-0.2,0.1-0.2l0.7-0.7
	c0.1-0.1,0.2-0.1,0.4-0.1C18.9,12.1,19,12.2,19,12.4z"/>
</svg>
