<?xml version="1.0" encoding="utf-8"?>
<!-- Generator: Adobe Illustrator 19.1.0, SVG Export Plug-In . SVG Version: 6.00 Build 0)  -->
<svg version="1.1" id="Layer_1" xmlns="http://www.w3.org/2000/svg" xmlns:xlink="http://www.w3.org/1999/xlink" x="0px" y="0px"
	 viewBox="0 0 26.6 19.8" style="enable-background:new 0 0 26.6 19.8;" xml:space="preserve">
<style type="text/css">
	.st0{fill-rule:evenodd;clip-rule:evenodd;fill:#FFFFFF;}
</style>
<path class="st0" d="M19.7,10.9C19.7,10.9,19.7,10.9,19.7,10.9l0,5.2c0,0.2-0.1,0.4-0.2,0.5c-0.1,0.1-0.3,0.2-0.5,0.2h-4.2v-4.2
	h-2.8v4.2H7.7c-0.2,0-0.4-0.1-0.5-0.2c-0.1-0.1-0.2-0.3-0.2-0.5V11l0,0v0l6.4-5.1L19.7,10.9z M22.2,10.2L21.5,11
	c-0.1,0.1-0.1,0.1-0.2,0.1h0c-0.1,0-0.2,0-0.2-0.1l-7.7-6.2l-7.6,6.2c-0.1,0.1-0.2,0.1-0.3,0.1c-0.1,0-0.2-0.1-0.2-0.1l-0.7-0.8
	c0-0.1-0.1-0.2-0.1-0.3c0-0.1,0.1-0.2,0.1-0.2l8-6.5C12.7,3.1,13,3,13.3,3c0.3,0,0.6,0.1,0.8,0.3l2.7,2.2V3.4c0-0.1,0-0.2,0.1-0.2
	C17,3,17.1,3,17.2,3h2.1c0.1,0,0.2,0,0.3,0.1c0.1,0.1,0.1,0.1,0.1,0.2v4.4l2.4,2c0.1,0.1,0.1,0.1,0.1,0.2
	C22.2,10.1,22.2,10.1,22.2,10.2z"/>
</svg>
