<?xml version="1.0" encoding="utf-8"?>
<!-- Generator: Adobe Illustrator 21.1.0, SVG Export Plug-In . SVG Version: 6.00 Build 0)  -->
<svg version="1.1" id="Layer_1" xmlns="http://www.w3.org/2000/svg" xmlns:xlink="http://www.w3.org/1999/xlink" x="0px" y="0px"
	 viewBox="0 0 32.3 31.4" style="enable-background:new 0 0 32.3 31.4;" xml:space="preserve">
<style type="text/css">
	.st0{fill-rule:evenodd;clip-rule:evenodd;fill:#FFFFFF;}
</style>
<g>
	<path class="st0" d="M23.2,20.8h-14c-0.4,0-0.7-0.4-0.7-0.8v-8.2l7.1,5.6c0.4,0.3,0.9,0.3,1.3,0l7-5.6v8.2
		C23.8,20.5,23.5,20.8,23.2,20.8z M22.1,10.6l-6,4.8l-6-4.8H22.1z M23.2,8.5h-14c-1.5,0-2.7,1.3-2.7,2.8v8.8c0,1.5,1.2,2.8,2.7,2.8
		h14c1.5,0,2.7-1.3,2.7-2.8v-8.8C25.9,9.8,24.7,8.5,23.2,8.5z"/>
</g>
</svg>
