<?xml version="1.0" encoding="utf-8"?>
<!-- Generator: Adobe Illustrator 21.1.0, SVG Export Plug-In . SVG Version: 6.00 Build 0)  -->
<svg version="1.1" id="Layer_1" xmlns="http://www.w3.org/2000/svg" xmlns:xlink="http://www.w3.org/1999/xlink" x="0px" y="0px"
	 viewBox="0 0 32.3 31.4" style="enable-background:new 0 0 32.3 31.4;" xml:space="preserve">
<style type="text/css">
	.st0{fill-rule:evenodd;clip-rule:evenodd;fill:#FFFFFF;}
</style>
<g>
	<path class="st0" d="M23.7,21.3c0-0.4-0.1-0.7-0.4-1c-0.3-0.3-0.6-0.4-1-0.4s-0.7,0.1-1,0.4c-0.3,0.3-0.4,0.6-0.4,1
		c0,0.4,0.1,0.7,0.4,1c0.3,0.3,0.6,0.4,1,0.4s0.7-0.1,1-0.4C23.6,22,23.7,21.7,23.7,21.3z M23.7,10.1c0-0.4-0.1-0.7-0.4-1
		c-0.3-0.3-0.6-0.4-1-0.4s-0.7,0.1-1,0.4c-0.3,0.3-0.4,0.6-0.4,1c0,0.4,0.1,0.7,0.4,1c0.3,0.3,0.6,0.4,1,0.4s0.7-0.1,1-0.4
		C23.6,10.8,23.7,10.5,23.7,10.1z M24.9,20.2c1.1,0.1,1.6,0.2,1.6,0.3V22c0,0.1-0.5,0.2-1.6,0.3c-0.1,0.2-0.2,0.4-0.3,0.6
		c0.4,0.8,0.5,1.3,0.5,1.5c0,0,0,0.1,0,0.1c-0.9,0.5-1.3,0.8-1.3,0.8c-0.1,0-0.2-0.2-0.5-0.5c-0.3-0.3-0.4-0.6-0.6-0.7
		c-0.1,0-0.2,0-0.3,0s-0.2,0-0.3,0c-0.1,0.1-0.3,0.4-0.6,0.7c-0.3,0.3-0.4,0.5-0.5,0.5c0,0-0.5-0.3-1.3-0.8c0,0,0,0,0-0.1
		c0-0.2,0.2-0.7,0.5-1.5c-0.1-0.2-0.2-0.4-0.3-0.6c-1.1-0.1-1.6-0.2-1.6-0.3v-1.5c0-0.1,0.5-0.2,1.6-0.3c0.1-0.2,0.2-0.4,0.3-0.6
		c-0.4-0.8-0.5-1.3-0.5-1.5c0,0,0,0,0-0.1l0.4-0.2l0.6-0.4c0.2-0.1,0.3-0.2,0.3-0.2c0.1,0,0.2,0.2,0.5,0.5c0.3,0.3,0.5,0.6,0.6,0.7
		c0.1,0,0.2,0,0.3,0s0.2,0,0.3,0c0.4-0.5,0.7-0.9,1-1.2l0.1,0c0,0,0.5,0.3,1.3,0.8c0,0,0,0,0,0.1c0,0.2-0.2,0.7-0.5,1.5
		C24.7,19.8,24.8,20,24.9,20.2z M24.9,9c1.1,0.1,1.6,0.2,1.6,0.3v1.5c0,0.1-0.5,0.2-1.6,0.3c-0.1,0.2-0.2,0.4-0.3,0.6
		c0.4,0.8,0.5,1.3,0.5,1.5c0,0,0,0.1,0,0.1c-0.9,0.5-1.3,0.8-1.3,0.8c-0.1,0-0.2-0.2-0.5-0.5c-0.3-0.3-0.4-0.6-0.6-0.7
		c-0.1,0-0.2,0-0.3,0s-0.2,0-0.3,0c-0.1,0.1-0.3,0.4-0.6,0.7C21.2,14,21,14.1,21,14.1c0,0-0.5-0.3-1.3-0.8c0,0,0-0.1,0-0.1
		c0-0.2,0.2-0.7,0.5-1.5c-0.1-0.2-0.2-0.4-0.3-0.6c-1.1-0.1-1.6-0.2-1.6-0.3V9.4c0-0.1,0.5-0.2,1.6-0.3c0.1-0.2,0.2-0.4,0.3-0.6
		c-0.4-0.8-0.5-1.3-0.5-1.5c0,0,0-0.1,0-0.1L20,6.6l0.6-0.4c0.2-0.1,0.3-0.2,0.3-0.2c0.1,0,0.2,0.2,0.5,0.5c0.3,0.3,0.5,0.6,0.6,0.7
		c0.1,0,0.2,0,0.3,0s0.2,0,0.3,0c0.4-0.5,0.7-0.9,1-1.2l0.1,0c0,0,0.5,0.2,1.3,0.8c0,0,0,0.1,0,0.1c0,0.2-0.2,0.7-0.5,1.5
		C24.7,8.6,24.8,8.8,24.9,9z M14.7,17.7c0.5-0.6,0.8-1.2,0.8-2c0-0.8-0.3-1.4-0.8-2c-0.5-0.5-1.2-0.8-1.9-0.8s-1.4,0.3-1.9,0.8
		c-0.5,0.6-0.8,1.2-0.8,2c0,0.8,0.3,1.4,0.8,2c0.5,0.5,1.2,0.8,1.9,0.8S14.1,18.2,14.7,17.7z M19.6,14.7v2c0,0.1,0,0.1-0.1,0.2
		c0,0.1-0.1,0.1-0.2,0.1l-1.7,0.3c-0.1,0.2-0.2,0.5-0.4,0.8c0.2,0.4,0.6,0.8,1,1.2c0,0.1,0.1,0.1,0.1,0.2c0,0.1,0,0.1-0.1,0.2
		c-0.2,0.2-0.5,0.5-0.9,1c-0.4,0.4-0.7,0.6-0.8,0.6c-0.1,0-0.2,0-0.2-0.1l-1.2-1c-0.3,0.1-0.5,0.2-0.8,0.3c-0.1,0.8-0.2,1.4-0.2,1.7
		c-0.1,0.2-0.2,0.3-0.3,0.3h-2c-0.1,0-0.1,0-0.2-0.1c-0.1,0-0.1-0.1-0.1-0.2l-0.2-1.7c-0.2-0.1-0.5-0.2-0.8-0.3l-1.3,1
		c-0.1,0.1-0.1,0.1-0.2,0.1c-0.1,0-0.2,0-0.2-0.1c-1-1-1.5-1.5-1.5-1.7c0-0.1,0-0.1,0.1-0.2c0.1-0.1,0.2-0.3,0.4-0.6
		c0.2-0.3,0.4-0.5,0.5-0.7c-0.2-0.3-0.3-0.6-0.4-0.9L6.1,17C6,17,6,17,5.9,16.9c-0.1-0.1-0.1-0.1-0.1-0.2v-2c0-0.1,0-0.1,0.1-0.2
		c0-0.1,0.1-0.1,0.2-0.1l1.7-0.3c0.1-0.2,0.2-0.5,0.3-0.8c-0.2-0.3-0.6-0.8-1-1.2C7.1,11.9,7,11.9,7,11.8c0-0.1,0-0.2,0.1-0.2
		c0.2-0.2,0.4-0.5,0.9-1C8.4,10.2,8.7,10,8.8,10C8.9,10,9,10,9.1,10l1.2,1c0.2-0.1,0.5-0.2,0.8-0.4c0.1-0.8,0.2-1.3,0.2-1.7
		c0.1-0.2,0.2-0.3,0.3-0.3h2c0.1,0,0.2,0,0.2,0.1C14,8.9,14,8.9,14,9l0.2,1.7c0.2,0.1,0.5,0.2,0.8,0.3l1.3-1
		c0.1-0.1,0.1-0.1,0.2-0.1c0.1,0,0.1,0,0.2,0.1c1,1,1.5,1.5,1.5,1.7c0,0.1,0,0.1-0.1,0.2l-0.5,0.6c-0.2,0.3-0.4,0.5-0.5,0.7
		c0.2,0.3,0.3,0.6,0.4,0.9l1.6,0.3c0.1,0,0.1,0.1,0.2,0.1C19.6,14.6,19.6,14.6,19.6,14.7z"/>
</g>
</svg>
