<?xml version="1.0" encoding="utf-8"?>
<!-- Generator: Adobe Illustrator 19.1.0, SVG Export Plug-In . SVG Version: 6.00 Build 0)  -->
<svg version="1.1" id="Layer_1" xmlns="http://www.w3.org/2000/svg" xmlns:xlink="http://www.w3.org/1999/xlink" x="0px" y="0px"
	 viewBox="0 0 26.6 19.8" style="enable-background:new 0 0 26.6 19.8;" xml:space="preserve">
<style type="text/css">
	.st0{fill-rule:evenodd;clip-rule:evenodd;fill:#FFFFFF;}
</style>
<g>
	<path class="st0" d="M3.6,18.1h3.5V19H2.8v-4.5h0.9V18.1z M3.6,5.2H2.8V0.8h4.4v0.9H3.6V5.2z M5.8,3.9h2.9v12H5.8V3.9z M9.6,3.9
		h1.3v12H9.6V3.9z M11.3,3.9h0.4v12h-0.4V3.9z M12.7,3.9H14v12h-1.3V3.9z M15.1,3.9h2.4v12h-2.4V3.9z M17.9,3.9h1.3v12h-1.3V3.9z
		 M23,1.7h-3.5V0.8h4.4v4.4H23V1.7z M19.9,15.9v-12h0.9v12H19.9z M19.5,19v-0.9H23v-3.6h0.9V19H19.5z"/>
</g>
</svg>
