<?xml version="1.0" encoding="utf-8"?>
<!-- Generator: Adobe Illustrator 19.1.0, SVG Export Plug-In . SVG Version: 6.00 Build 0)  -->
<svg version="1.1" id="Layer_1" xmlns="http://www.w3.org/2000/svg" xmlns:xlink="http://www.w3.org/1999/xlink" x="0px" y="0px"
	 viewBox="0 0 26.6 19.8" style="enable-background:new 0 0 26.6 19.8;" xml:space="preserve">
<style type="text/css">
	.st0{fill-rule:evenodd;clip-rule:evenodd;fill:#FFFFFF;}
</style>
<g>
	<path class="st0" d="M20.9,15.5c0-0.4-0.1-0.7-0.4-1c-0.3-0.3-0.6-0.4-1-0.4s-0.7,0.1-1,0.4c-0.3,0.3-0.4,0.6-0.4,1s0.1,0.7,0.4,1
		c0.3,0.3,0.6,0.4,1,0.4s0.7-0.1,1-0.4C20.7,16.2,20.9,15.9,20.9,15.5z M20.9,4.3c0-0.4-0.1-0.7-0.4-1c-0.3-0.3-0.6-0.4-1-0.4
		s-0.7,0.1-1,0.4c-0.3,0.3-0.4,0.6-0.4,1c0,0.4,0.1,0.7,0.4,1c0.3,0.3,0.6,0.4,1,0.4s0.7-0.1,1-0.4C20.7,5.1,20.9,4.7,20.9,4.3z
		 M22,14.4c1.1,0.1,1.6,0.2,1.6,0.3v1.5c0,0.1-0.5,0.2-1.6,0.3c-0.1,0.2-0.2,0.4-0.3,0.6c0.4,0.8,0.5,1.3,0.5,1.5c0,0,0,0,0,0.1
		c-0.9,0.5-1.3,0.8-1.3,0.8c-0.1,0-0.2-0.2-0.5-0.5c-0.3-0.3-0.4-0.6-0.6-0.7c-0.1,0-0.2,0-0.3,0s-0.2,0-0.3,0
		c-0.1,0.1-0.3,0.4-0.6,0.7c-0.3,0.3-0.4,0.5-0.5,0.5c0,0-0.5-0.3-1.3-0.8c0,0,0,0,0-0.1c0-0.2,0.2-0.7,0.5-1.5
		c-0.1-0.2-0.2-0.4-0.3-0.6c-1.1-0.1-1.6-0.2-1.6-0.3v-1.5c0-0.1,0.5-0.2,1.6-0.3c0.1-0.2,0.2-0.4,0.3-0.6c-0.4-0.8-0.5-1.3-0.5-1.5
		c0,0,0,0,0-0.1l0.4-0.2l0.6-0.4c0.2-0.1,0.3-0.2,0.3-0.2c0.1,0,0.2,0.2,0.5,0.5c0.3,0.3,0.5,0.6,0.6,0.7c0.1,0,0.2,0,0.3,0
		s0.2,0,0.3,0c0.4-0.5,0.7-0.9,1-1.2l0.1,0c0,0,0.5,0.3,1.3,0.8c0,0,0,0,0,0.1c0,0.2-0.2,0.7-0.5,1.5C21.8,14,21.9,14.2,22,14.4z
		 M22,3.2c1.1,0.1,1.6,0.2,1.6,0.3v1.5c0,0.1-0.5,0.2-1.6,0.3c-0.1,0.2-0.2,0.4-0.3,0.6c0.4,0.8,0.5,1.3,0.5,1.5c0,0,0,0.1,0,0.1
		c-0.9,0.5-1.3,0.8-1.3,0.8c-0.1,0-0.2-0.2-0.5-0.5c-0.3-0.3-0.4-0.6-0.6-0.7c-0.1,0-0.2,0-0.3,0s-0.2,0-0.3,0
		c-0.1,0.2-0.3,0.4-0.6,0.7c-0.3,0.3-0.4,0.5-0.5,0.5c0,0-0.5-0.3-1.3-0.8c0,0,0,0,0-0.1c0-0.2,0.2-0.7,0.5-1.5
		c-0.1-0.2-0.2-0.4-0.3-0.6c-1.1-0.1-1.6-0.2-1.6-0.3V3.6c0-0.1,0.5-0.2,1.6-0.3c0.1-0.2,0.2-0.4,0.3-0.6c-0.4-0.8-0.5-1.3-0.5-1.5
		c0,0,0-0.1,0-0.1l0.4-0.2l0.6-0.4c0.2-0.1,0.3-0.2,0.3-0.2c0.1,0,0.2,0.2,0.5,0.5c0.3,0.3,0.5,0.6,0.6,0.7c0.1,0,0.2,0,0.3,0
		s0.2,0,0.3,0c0.4-0.5,0.7-0.9,1-1.2l0.1,0c0,0,0.5,0.2,1.3,0.8c0,0,0,0,0,0.1c0,0.2-0.2,0.7-0.5,1.5C21.8,2.8,21.9,3,22,3.2z
		 M11.8,11.9c0.5-0.6,0.8-1.2,0.8-2c0-0.8-0.3-1.4-0.8-2c-0.5-0.5-1.2-0.8-1.9-0.8S8.5,7.4,7.9,7.9c-0.5,0.5-0.8,1.2-0.8,2
		c0,0.8,0.3,1.4,0.8,2c0.5,0.5,1.2,0.8,1.9,0.8S11.3,12.4,11.8,11.9z M16.8,8.9v2c0,0.1,0,0.1-0.1,0.2c0,0.1-0.1,0.1-0.2,0.1
		l-1.7,0.3c-0.1,0.2-0.2,0.5-0.4,0.8c0.2,0.4,0.6,0.8,1,1.2c0.1,0.1,0.1,0.2,0.1,0.2c0,0.1,0,0.1-0.1,0.2c-0.2,0.2-0.5,0.5-0.9,1
		c-0.4,0.4-0.7,0.6-0.8,0.6c-0.1,0-0.2,0-0.2-0.1l-1.2-1c-0.3,0.1-0.5,0.2-0.8,0.3c-0.1,0.8-0.2,1.4-0.2,1.7c0,0.2-0.2,0.3-0.3,0.3
		h-2c-0.1,0-0.1,0-0.2-0.1c-0.1,0-0.1-0.1-0.1-0.2l-0.2-1.7c-0.2-0.1-0.5-0.2-0.8-0.3l-1.3,1c-0.1,0.1-0.1,0.1-0.2,0.1
		c-0.1,0-0.2,0-0.2-0.1c-1-1-1.5-1.5-1.5-1.7c0-0.1,0-0.1,0.1-0.2c0.1-0.1,0.2-0.3,0.4-0.6c0.2-0.3,0.4-0.5,0.5-0.7
		c-0.2-0.3-0.3-0.6-0.4-0.9l-1.6-0.3c-0.1,0-0.1,0-0.2-0.1C3,11.1,3,11,3,10.9v-2c0-0.1,0-0.1,0.1-0.2c0-0.1,0.1-0.1,0.2-0.1
		l1.7-0.3C5,8.1,5.1,7.8,5.3,7.5C5,7.1,4.7,6.7,4.3,6.2c0-0.1-0.1-0.1-0.1-0.2c0-0.1,0-0.2,0.1-0.2c0.2-0.2,0.5-0.5,0.9-1
		S5.9,4.2,6,4.2c0.1,0,0.2,0,0.2,0.1l1.2,1C7.7,5.1,8,5,8.3,4.9c0.1-0.8,0.2-1.4,0.2-1.7c0-0.2,0.2-0.3,0.3-0.3h2
		C11,2.9,11,3,11.1,3c0.1,0,0.1,0.1,0.1,0.2l0.2,1.7c0.2,0.1,0.5,0.2,0.8,0.3l1.3-1c0.1,0,0.1-0.1,0.2-0.1c0.1,0,0.2,0,0.2,0.1
		c1,1,1.6,1.5,1.6,1.7c0,0.1,0,0.1-0.1,0.2L15,6.8c-0.2,0.3-0.4,0.5-0.5,0.6c0.2,0.4,0.3,0.7,0.4,0.9l1.6,0.3c0.1,0,0.1,0,0.2,0.1
		C16.7,8.8,16.8,8.8,16.8,8.9z"/>
</g>
</svg>
