<?xml version="1.0" encoding="utf-8"?>
<!-- Generator: Adobe Illustrator 21.1.0, SVG Export Plug-In . SVG Version: 6.00 Build 0)  -->
<svg version="1.1" id="Layer_1" xmlns="http://www.w3.org/2000/svg" xmlns:xlink="http://www.w3.org/1999/xlink" x="0px" y="0px"
	 viewBox="0 0 45.5 40.9" style="enable-background:new 0 0 45.5 40.9;" xml:space="preserve">
<style type="text/css">
	.st0{fill-rule:evenodd;clip-rule:evenodd;fill:#00984E;}
</style>
<path class="st0" d="M37.9,13.9l-1.6,1.6l-5-5l1.6-1.6c0.3-0.3,0.7-0.5,1.2-0.5c0.5,0,0.9,0.2,1.2,0.5l2.7,2.6
	c0.3,0.3,0.5,0.7,0.5,1.2C38.4,13.2,38.2,13.6,37.9,13.9z M30.4,14.7c0.2-0.2,0.2-0.4,0-0.6c-0.2-0.2-0.4-0.2-0.6,0l-6.1,6.1
	c-0.2,0.2-0.2,0.4,0,0.6c0.2,0.2,0.4,0.2,0.6,0L30.4,14.7z M22.7,26.6l2-2l-2.7-2.6l-2,2v1h1.7v1.7H22.7z M30.1,11.6l5.1,5
	L23.4,28.2h-5v-5L30.1,11.6z M31.8,24.4v3.3c0,1.4-0.5,2.5-1.5,3.5c-1,1-2.2,1.5-3.6,1.5H12.2c-1.4,0-2.6-0.5-3.6-1.5
	c-1-1-1.5-2.2-1.5-3.5V13.3c0-1.4,0.5-2.5,1.5-3.5s2.2-1.5,3.6-1.5h14.6c0.7,0,1.4,0.2,2.1,0.4c0.2,0.1,0.3,0.2,0.3,0.4
	c0,0.2,0,0.4-0.1,0.5l-0.9,0.9c-0.2,0.2-0.4,0.2-0.6,0.1c-0.3-0.1-0.5-0.1-0.8-0.1H12.2c-0.8,0-1.4,0.3-2,0.8s-0.8,1.2-0.8,2v14.4
	c0,0.8,0.3,1.4,0.8,2c0.6,0.5,1.2,0.8,2,0.8h14.6c0.8,0,1.4-0.3,2-0.8c0.5-0.5,0.8-1.2,0.8-2v-2.2c0-0.1,0.1-0.3,0.2-0.4l1.1-1.1
	c0.2-0.2,0.4-0.2,0.6-0.1C31.7,24,31.8,24.1,31.8,24.4z"/>
</svg>
