<?xml version="1.0" encoding="utf-8"?>
<!-- Generator: Adobe Illustrator 19.1.0, SVG Export Plug-In . SVG Version: 6.00 Build 0)  -->
<svg version="1.1" id="Layer_1" xmlns="http://www.w3.org/2000/svg" xmlns:xlink="http://www.w3.org/1999/xlink" x="0px" y="0px"
	 viewBox="0 0 26.6 19.8" style="enable-background:new 0 0 26.6 19.8;" xml:space="preserve">
<style type="text/css">
	.st0{fill:#FFFFFF;}
</style>
<g>
	<path class="st0" d="M3.8,7.1c1.2-3.9,4.9-6.7,9.3-6.7h0.3v0.2c0,3.8-3.2,6.9-7.1,6.9C5.5,7.6,4.6,7.4,3.8,7.1z"/>
	<path class="st0" d="M18.8,2.3c2.4,1.7,4,4.5,4,7.7c0,3.2-1.6,6-4.1,7.7c-0.5-3-2.2-5.6-4.5-7.4C16.7,8.3,18.4,5.5,18.8,2.3z"/>
	<path class="st0" d="M13.4,19.4h-0.3c-4.1,0-7.7-2.5-9.1-6.1c0.7-0.2,1.5-0.4,2.3-0.4C10.1,12.9,13.2,15.8,13.4,19.4z"/>
</g>
</svg>
