<?xml version="1.0" encoding="utf-8"?>
<!-- Generator: Adobe Illustrator 19.1.0, SVG Export Plug-In . SVG Version: 6.00 Build 0)  -->
<svg version="1.1" id="Layer_1" xmlns="http://www.w3.org/2000/svg" xmlns:xlink="http://www.w3.org/1999/xlink" x="0px" y="0px"
	 viewBox="0 0 26.6 19.8" style="enable-background:new 0 0 26.6 19.8;" xml:space="preserve">
<style type="text/css">
	.st0{fill-rule:evenodd;clip-rule:evenodd;fill:#FFFFFF;}
	.st1{fill:#FFFFFF;}
</style>
<g>
	<path class="st0" d="M19.6,17.4H6.3c-2.2,0-3.9-1.7-3.9-3.8s1.8-3.8,3.9-3.8c0.1,0,0.2,0,0.3,0C6.4,9.5,6.3,9,6.3,8.4
		c0-2.1,1.8-3.8,3.9-3.8c0.7,0,1.4,0.2,1.9,0.5c0.7-1.6,2.4-2.8,4.3-2.8c2.6,0,4.7,2,4.7,4.5c0,0.6-0.1,1.1-0.3,1.7
		c2,0.5,3.5,2.2,3.5,4.3C24.2,15.4,22.1,17.4,19.6,17.4z M22.6,7.7c0-0.3,0.1-0.5,0.1-0.8c0-3.3-2.8-6-6.2-6c-2,0-3.8,0.9-5,2.4
		c-0.4-0.1-0.8-0.1-1.2-0.1c-3,0-5.5,2.4-5.5,5.3v0.2c-2.3,0.6-3.9,2.7-3.9,5c0,2.9,2.5,5.3,5.5,5.3h13.3c3.4,0,6.2-2.7,6.2-6
		C25.8,10.7,24.5,8.8,22.6,7.7z"/>
	<path class="st1" d="M14.9,11.4h1.6c0,1.7-1.4,3-3.1,3c-0.6,0-1.1-0.2-1.6-0.4l-0.9,1.2c0.7,0.5,1.6,0.7,2.5,0.7
		c2.6,0,4.7-2,4.7-4.5h1.6l-2.3-3L14.9,11.4z"/>
	<path class="st1" d="M10.2,11.4c0-1.7,1.4-3,3.1-3c0.6,0,1.1,0.2,1.6,0.4l0.9-1.2c-0.7-0.5-1.6-0.7-2.6-0.7c-2.6,0-4.7,2-4.7,4.5
		H7.1l2.3,3l2.3-3H10.2z"/>
</g>
</svg>
