<?xml version="1.0" encoding="utf-8"?>
<!-- Generator: Adobe Illustrator 21.1.0, SVG Export Plug-In . SVG Version: 6.00 Build 0)  -->
<svg version="1.1" id="Layer_1" xmlns="http://www.w3.org/2000/svg" xmlns:xlink="http://www.w3.org/1999/xlink" x="0px" y="0px"
	 viewBox="0 0 32.3 31.4" style="enable-background:new 0 0 32.3 31.4;" xml:space="preserve">
<style type="text/css">
	.st0{fill:#FFFFFF;}
</style>
<path class="st0" d="M25.3,6c0.1,0,0.3,0,0.4,0.1C26,6.3,26.1,6.5,26,6.8l-2.8,16.6c0,0.2-0.2,0.4-0.4,0.5C22.8,24,22.6,24,22.5,24
	c-0.1,0-0.2,0-0.3-0.1l-5-2l-2.7,3.2c-0.1,0.2-0.3,0.2-0.5,0.2c-0.1,0-0.2,0-0.2,0c-0.1,0-0.2-0.1-0.3-0.3c-0.1-0.1-0.1-0.2-0.1-0.4
	v-3.8l9.5-11.5L11,19.5l-4.4-1.8c-0.3-0.1-0.4-0.3-0.4-0.6c0-0.3,0.1-0.5,0.4-0.6L25,6.1C25.1,6,25.2,6,25.3,6z"/>
</svg>
