<?xml version="1.0" encoding="utf-8"?>
<!-- Generator: Adobe Illustrator 21.1.0, SVG Export Plug-In . SVG Version: 6.00 Build 0)  -->
<svg version="1.1" id="Layer_1" xmlns="http://www.w3.org/2000/svg" xmlns:xlink="http://www.w3.org/1999/xlink" x="0px" y="0px"
	 viewBox="0 0 32.3 31.4" style="enable-background:new 0 0 32.3 31.4;" xml:space="preserve">
<style type="text/css">
	.st0{fill-rule:evenodd;clip-rule:evenodd;fill:#FFFFFF;}
</style>
<path class="st0" d="M22.5,16.7C22.5,16.7,22.5,16.7,22.5,16.7l0,5.2c0,0.2-0.1,0.4-0.2,0.5c-0.1,0.1-0.3,0.2-0.5,0.2h-4.2v-4.2
	h-2.8v4.2h-4.2c-0.2,0-0.4-0.1-0.5-0.2c-0.1-0.1-0.2-0.3-0.2-0.5v-5.2l0,0v0l6.4-5.1L22.5,16.7z M25,16l-0.7,0.8
	c-0.1,0.1-0.1,0.1-0.2,0.1h0c-0.1,0-0.2,0-0.2-0.1l-7.7-6.2l-7.6,6.2c-0.1,0.1-0.2,0.1-0.3,0.1c-0.1,0-0.2-0.1-0.2-0.1L7.3,16
	c-0.1-0.1-0.1-0.2-0.1-0.3c0-0.1,0.1-0.2,0.1-0.2l8-6.5c0.2-0.2,0.5-0.3,0.8-0.3S16.7,8.9,17,9l2.7,2.2V9.1c0-0.1,0-0.2,0.1-0.2
	c0.1-0.1,0.1-0.1,0.2-0.1h2.1c0.1,0,0.2,0,0.3,0.1C22.5,9,22.5,9,22.5,9.1v4.4l2.4,2c0.1,0.1,0.1,0.1,0.1,0.2
	C25.1,15.9,25,15.9,25,16z"/>
</svg>
