<?xml version="1.0" encoding="utf-8"?>
<!-- Generator: Adobe Illustrator 21.1.0, SVG Export Plug-In . SVG Version: 6.00 Build 0)  -->
<svg version="1.1" id="Layer_1" xmlns="http://www.w3.org/2000/svg" xmlns:xlink="http://www.w3.org/1999/xlink" x="0px" y="0px"
	 viewBox="0 0 32.3 31.4" style="enable-background:new 0 0 32.3 31.4;" xml:space="preserve">
<style type="text/css">
	.st0{fill:#FFFFFF;}
	.st1{fill-rule:evenodd;clip-rule:evenodd;fill:#FFFFFF;}
</style>
<g>
	<path class="st0" d="M13.4,24.5c0,0.2,0.2,0.4,0.4,0.4h4.7c0.2,0,0.4-0.2,0.4-0.4v-6h-5.5V24.5z"/>
	<path class="st1" d="M18.9,11.7c0,0.2-0.2,0.4-0.4,0.4h-1.5v1.5c0,0.2-0.2,0.4-0.4,0.4h-1.1c-0.2,0-0.4-0.2-0.4-0.4v-1.5h-1.5
		c-0.2,0-0.4-0.2-0.4-0.4v-1.1c0-0.2,0.2-0.4,0.4-0.4h1.5V8.8c0-0.2,0.2-0.4,0.4-0.4h1.1c0.2,0,0.4,0.2,0.4,0.4v1.5h1.5
		c0.2,0,0.4,0.2,0.4,0.4V11.7z M24.4,12.1h-2.7V8.2c0-0.4-0.3-0.8-0.6-0.9c-3.2-0.9-6.5-0.9-9.7,0c-0.4,0.1-0.7,0.5-0.7,0.9v3.9H7.9
		C7.4,12.1,7,12.5,7,13v10.9c0,0.5,0.4,0.9,0.9,0.9h3.3c0.2,0,0.4-0.2,0.4-0.4v-6c0-1,0.8-1.8,1.8-1.8h5.5c1,0,1.8,0.8,1.8,1.8v6
		c0,0.2,0.2,0.4,0.4,0.4h3.3c0.5,0,0.9-0.4,0.9-0.9V13C25.3,12.5,24.9,12.1,24.4,12.1z"/>
</g>
</svg>
