<?xml version="1.0" encoding="utf-8"?>
<!-- Generator: Adobe Illustrator 21.1.0, SVG Export Plug-In . SVG Version: 6.00 Build 0)  -->
<svg version="1.1" id="Layer_1" xmlns="http://www.w3.org/2000/svg" xmlns:xlink="http://www.w3.org/1999/xlink" x="0px" y="0px"
	 viewBox="0 0 45.5 40.9" style="enable-background:new 0 0 45.5 40.9;" xml:space="preserve">
<style type="text/css">
	.st0{fill-rule:evenodd;clip-rule:evenodd;fill:#00984E;}
</style>
<g>
	<path class="st0" d="M8.2,32.6h5.3v1.3H6.9v-6.6h1.3V32.6z M8.2,13.6H6.9V7h6.6v1.3H8.2V13.6z M11.5,11.6h4.3v17.7h-4.3V11.6z
		 M17.1,11.6h2v17.7h-2V11.6z M19.8,11.6h0.7v17.7h-0.7V11.6z M21.8,11.6h2v17.7h-2V11.6z M25.4,11.6H29v17.7h-3.6V11.6z M29.7,11.6
		h2v17.7h-2V11.6z M37.3,8.3H32V7h6.6v6.6h-1.3V8.3z M32.6,29.3V11.6H34v17.7H32.6z M32,33.9v-1.3h5.3v-5.3h1.3v6.6H32z"/>
</g>
</svg>
