<?xml version="1.0" encoding="utf-8"?>
<!-- Generator: Adobe Illustrator 21.1.0, SVG Export Plug-In . SVG Version: 6.00 Build 0)  -->
<svg version="1.1" id="Layer_1" xmlns="http://www.w3.org/2000/svg" xmlns:xlink="http://www.w3.org/1999/xlink" x="0px" y="0px"
	 viewBox="0 0 32.3 31.4" style="enable-background:new 0 0 32.3 31.4;" xml:space="preserve">
<style type="text/css">
	.st0{fill:#FFFFFF;}
</style>
<g>
	<g>
		<path class="st0" d="M7.7,16.7C7.3,16.7,7,17,7,17.4v6c0,0.4,0.3,0.7,0.7,0.7h16.9c0.4,0,0.7-0.3,0.7-0.7v-6
			c0-0.4-0.3-0.7-0.7-0.7h-4c-0.3,0-0.6,0.2-0.7,0.5l-0.8,2.2h-5.9l-0.8-2.2c-0.1-0.3-0.4-0.5-0.7-0.5H7.7z M23.8,22.7H8.5v-4.6h2.7
			l0.8,2.2c0.1,0.3,0.4,0.5,0.7,0.5h7c0.3,0,0.6-0.2,0.7-0.5l0.8-2.2h2.7V22.7z"/>
	</g>
	<g>
		<path class="st0" d="M15.4,9.8v6.2c0,0.4,0.3,0.7,0.7,0.7c0.4,0,0.7-0.3,0.7-0.7V9.8l1.7,1.6c0.3,0.3,0.8,0.3,1.1,0
			c0.1-0.1,0.2-0.3,0.2-0.5c0-0.2-0.1-0.4-0.2-0.5l-3-2.9c0,0-0.1-0.1-0.1-0.1l-0.1,0c0,0-0.1,0-0.1,0c-0.1,0-0.1,0-0.1,0l-0.1,0
			c-0.1,0-0.1,0-0.1,0l-0.1,0c0,0-0.1,0-0.1,0l-0.1,0c0,0,0,0-0.1,0l-0.1,0c0,0,0,0-0.1,0.1l-3,2.9c-0.1,0.1-0.2,0.3-0.2,0.5
			c0,0.2,0.1,0.4,0.2,0.5c0.3,0.3,0.8,0.3,1.1,0l0,0L15.4,9.8z"/>
	</g>
</g>
</svg>
