<?xml version="1.0" encoding="utf-8"?>
<!-- Generator: Adobe Illustrator 19.1.0, SVG Export Plug-In . SVG Version: 6.00 Build 0)  -->
<svg version="1.1" id="Layer_1" xmlns="http://www.w3.org/2000/svg" xmlns:xlink="http://www.w3.org/1999/xlink" x="0px" y="0px"
	 viewBox="0 0 26.6 19.8" style="enable-background:new 0 0 26.6 19.8;" xml:space="preserve">
<style type="text/css">
	.st0{fill-rule:evenodd;clip-rule:evenodd;fill:#0EAA54;}
</style>
<g>
	<path class="st0" d="M1.8,16.1v-5.9c0-4.5,3.6-8.1,8-8.1c4.4,0,7.9,3.6,7.9,8.1v2.9v3c-0.4,0.5-3.2,1.4-7.9,1.4c-0.3,0-0.7,0-1,0
		H8.7c-0.3,0-0.6,0-0.9,0C4.3,17.3,2.1,16.6,1.8,16.1z M19,13.2v-3c0-5.2-4.1-9.4-9.2-9.4c-5.1,0-9.2,4.2-9.2,9.4v5.9
		c0,1.6,3.2,2.2,5.9,2.5c1.5,0.3,3.4,0.4,5.9,0.4c7.6,0,13.7,0,13.7-3.1C26,14.2,23.5,13.6,19,13.2z"/>
</g>
</svg>
