<?xml version="1.0" encoding="utf-8"?>
<!-- Generator: Adobe Illustrator 21.1.0, SVG Export Plug-In . SVG Version: 6.00 Build 0)  -->
<svg version="1.1" id="Layer_1" xmlns="http://www.w3.org/2000/svg" xmlns:xlink="http://www.w3.org/1999/xlink" x="0px" y="0px"
	 viewBox="0 0 32.3 31.4" style="enable-background:new 0 0 32.3 31.4;" xml:space="preserve">
<style type="text/css">
	.st0{fill:#FFFFFF;}
</style>
<g>
	<path class="st0" d="M6.7,12.9c1.2-3.9,4.9-6.7,9.3-6.7h0.3v0.2c0,3.8-3.2,6.9-7.1,6.9C8.3,13.4,7.4,13.2,6.7,12.9z"/>
	<path class="st0" d="M21.6,8c2.4,1.7,4,4.5,4,7.7c0,3.2-1.6,6-4.1,7.7c-0.5-3-2.2-5.6-4.5-7.4C19.5,14.1,21.2,11.3,21.6,8z"/>
	<path class="st0" d="M16.2,25.2h-0.3c-4.2,0-7.7-2.5-9.1-6.1c0.7-0.2,1.5-0.4,2.3-0.4C12.9,18.7,16,21.6,16.2,25.2z"/>
</g>
</svg>
