<?xml version="1.0" encoding="utf-8"?>
<!-- Generator: Adobe Illustrator 19.1.0, SVG Export Plug-In . SVG Version: 6.00 Build 0)  -->
<svg version="1.1" id="Layer_1" xmlns="http://www.w3.org/2000/svg" xmlns:xlink="http://www.w3.org/1999/xlink" x="0px" y="0px"
	 viewBox="0 0 155.6 25.8" style="enable-background:new 0 0 155.6 25.8;" xml:space="preserve">
<style type="text/css">
	.st0{fill:#010202;}
	.st1{fill:#069353;}
	.st2{fill-rule:evenodd;clip-rule:evenodd;fill:#010202;}
</style>
<g>
	<g>
		<path class="st0" d="M1,8.9c1.4-4.6,5.7-8,10.7-8H12l0,0.3c0,4.5-3.7,8.2-8.2,8.2C2.9,9.4,1.9,9.2,1,8.9z"/>
		<path class="st1" d="M18.3,3.1c2.8,2,4.6,5.4,4.6,9.1c0,3.8-1.9,7.1-4.7,9.2c-0.6-3.5-2.5-6.6-5.2-8.8
			C15.8,10.3,17.8,6.9,18.3,3.1z"/>
		<path class="st0" d="M12,23.5l-0.3,0c-4.8,0-8.9-3-10.5-7.3c0.8-0.3,1.7-0.4,2.6-0.4C8.2,15.7,11.8,19.2,12,23.5z"/>
	</g>
	<path class="st2" d="M31.2,18.2h1.4c1.7,0,3.3-0.4,3.3-2.6c0-2.5-1.8-2.8-3.5-2.8h-1.2V18.2z M31.2,10.9h1.1c1.9,0,3.5-0.2,3.5-2.6
		c0-1.9-1.4-2.4-2.5-2.4h-2V10.9z M29.3,4.1H33c2.8,0,4.7,1.1,4.7,4c0,2.2-1.1,3.3-2.8,3.8v0c1.8,0.2,3.1,1.6,3.1,3.9
		c0,3.4-2.4,4.3-5.1,4.3h-3.6V4.1z"/>
	<rect x="40.6" y="8.4" class="st2" width="1.8" height="11.7"/>
	<path class="st2" d="M49.5,18.6c2.1,0,3.1-2.3,3.1-4.4c0-2.2-1.1-4.4-3.1-4.4c-2,0-3.1,2.2-3.1,4.4C46.4,16.3,47.4,18.6,49.5,18.6z
		 M49.5,8.1c3,0,5,2.6,5,6.1c0,3.3-2,6.1-5,6.1c-3,0-5-2.8-5-6.1C44.5,10.7,46.5,8.1,49.5,8.1z"/>
	<path class="st2" d="M63,10.4c-0.7-0.4-1.4-0.5-2-0.5c-2,0-3.2,2.2-3.2,4.4c0,2.1,1,4.4,3.3,4.4c0.6,0,1.4-0.2,1.9-0.7l0.1,1.9
		c-0.8,0.4-1.6,0.5-2.3,0.5c-3,0-5-2.8-5-6.1c0-3.6,2-6.1,5-6.1c0.7,0,1.7,0.2,2.2,0.5L63,10.4z"/>
	<path class="st2" d="M69.5,18.6c2.1,0,3.1-2.3,3.1-4.4c0-2.2-1.1-4.4-3.1-4.4c-1.9,0-3.1,2.2-3.1,4.4
		C66.4,16.3,67.4,18.6,69.5,18.6z M69.5,8.1c3,0,5,2.6,5,6.1c0,3.3-2,6.1-5,6.1c-3,0-5-2.8-5-6.1C64.5,10.7,66.5,8.1,69.5,8.1z"/>
	<path class="st2" d="M76.1,8.4h1.7v1.7h0c0.7-1.3,1.7-2,3.1-2c1.1,0,2.3,0.7,2.8,2.3c0.7-1.7,2.2-2.3,3-2.3c2.5,0,3.4,1.9,3.4,4.5
		v7.5h-1.8v-7c0-1.5-0.3-3.3-1.8-3.3c-1.8,0-2.6,2.2-2.6,4.3v5.9h-1.8v-7c0-1.5-0.3-3.3-1.8-3.3c-1.8,0-2.6,2.2-2.6,4.3v5.9h-1.8
		V8.4z"/>
	<path class="st2" d="M97,9.9c-2,0-2.9,2.2-2.9,4.4c0,2,0.8,4.4,2.9,4.4c2,0,2.8-2.6,2.7-4.4C99.8,12.1,99,9.9,97,9.9z M92.3,8.4
		h1.7v1.7h0c0.5-0.9,1.6-1.9,3.3-1.9c2.8,0,4.2,2.8,4.2,5.9c0,3.2-1.3,6.3-4.2,6.3c-1.7,0-2.7-0.8-3.3-1.9h0v6.4h-1.8V8.4z"/>
	<path class="st2" d="M108.3,18.6c2.1,0,3.1-2.3,3.1-4.4c0-2.2-1.1-4.4-3.1-4.4c-1.9,0-3.1,2.2-3.1,4.4
		C105.2,16.3,106.1,18.6,108.3,18.6z M108.3,8.1c3,0,5,2.6,5,6.1c0,3.3-2,6.1-5,6.1c-3,0-5-2.8-5-6.1
		C103.2,10.7,105.3,8.1,108.3,8.1z"/>
	<path class="st2" d="M114.7,17.8c0.7,0.5,1.7,0.8,2.2,0.8c0.8,0,1.8-0.4,1.8-1.7c0-2.1-4.2-1.9-4.2-5.2c0-2.4,1.5-3.6,3.5-3.6
		c0.8,0,1.5,0.2,2.3,0.5l-0.2,1.9c-0.4-0.3-1.5-0.6-1.9-0.6c-0.9,0-1.7,0.5-1.7,1.4c0,2.4,4.3,1.7,4.3,5.4c0,2.5-1.7,3.6-3.4,3.6
		c-0.9,0-1.9-0.1-2.7-0.6L114.7,17.8z"/>
	<rect x="123" y="8.4" class="st2" width="1.8" height="11.7"/>
	<path class="st2" d="M133.2,10.1h-2.6v6.4c0,1.4,0.7,2.1,1.5,2.1c0.6,0,1-0.2,1.2-0.4v1.8c-0.4,0.1-1,0.3-1.5,0.3
		c-1.9,0-3-1.1-3-3.4v-6.8h-2.2V8.4h2.2V5.7l1.8-0.7v3.4h2.6V10.1z"/>
	<path class="st2" d="M141.6,13.1c0-1.8-0.9-3.3-2.4-3.3c-1.8,0-2.5,1.8-2.6,3.3H141.6z M142.8,19.6c-0.7,0.3-1.5,0.8-3.1,0.8
		c-3.5,0-5.1-2.5-5.1-6.3c0-3.5,1.8-5.9,4.6-5.9c3.3,0,4.3,2.8,4.3,6.6h-7c0,2.3,1.5,3.9,3.2,3.9c1.2,0,2.6-0.7,3-1.2V19.6z"/>
	<path class="st2" d="M145,17.8c0.7,0.5,1.7,0.8,2.3,0.8c0.8,0,1.8-0.4,1.8-1.7c0-2.1-4.3-1.9-4.3-5.2c0-2.4,1.5-3.6,3.5-3.6
		c0.8,0,1.5,0.2,2.2,0.5l-0.2,1.9c-0.4-0.3-1.5-0.6-1.9-0.6c-0.9,0-1.7,0.5-1.7,1.4c0,2.4,4.3,1.7,4.3,5.4c0,2.5-1.7,3.6-3.4,3.6
		c-0.9,0-1.9-0.1-2.7-0.6L145,17.8z"/>
	<path class="st2" d="M152.4,3.5h0.4c0.3,0,0.4-0.1,0.4-0.3c0-0.2-0.2-0.3-0.4-0.3h-0.4V3.5z M152,2.5h0.8c0.5,0,0.7,0.2,0.7,0.6
		c0,0.3-0.2,0.6-0.6,0.6l0.6,0.9h-0.4l-0.6-0.9h-0.3v0.9H152V2.5z M152.8,5.2c0.8,0,1.5-0.7,1.5-1.6c0-0.9-0.6-1.6-1.5-1.6
		c-0.9,0-1.5,0.7-1.5,1.6C151.3,4.5,151.9,5.2,152.8,5.2z M152.8,1.8c1,0,1.8,0.8,1.8,1.8c0,1-0.8,1.8-1.8,1.8c-1,0-1.8-0.8-1.8-1.8
		C150.9,2.6,151.7,1.8,152.8,1.8z"/>
	<g>
		<path class="st1" d="M40.4,5.3c0-0.7,0.5-1.2,1.2-1.2c0.7,0,1.2,0.5,1.2,1.2c0,0.7-0.5,1.2-1.2,1.2C40.9,6.5,40.4,6,40.4,5.3z"/>
	</g>
	<g>
		<path class="st1" d="M122.7,5.3c0-0.7,0.5-1.2,1.2-1.2c0.7,0,1.2,0.5,1.2,1.2c0,0.7-0.5,1.2-1.2,1.2C123.3,6.5,122.7,6,122.7,5.3z
			"/>
	</g>
</g>
</svg>
