<?xml version="1.0" encoding="utf-8"?>
<!-- Generator: Adobe Illustrator 21.1.0, SVG Export Plug-In . SVG Version: 6.00 Build 0)  -->
<svg version="1.1" id="Layer_1" xmlns="http://www.w3.org/2000/svg" xmlns:xlink="http://www.w3.org/1999/xlink" x="0px" y="0px"
	 viewBox="0 0 45.5 40.9" style="enable-background:new 0 0 45.5 40.9;" xml:space="preserve">
<style type="text/css">
	.st0{fill-rule:evenodd;clip-rule:evenodd;fill:#00984E;}
</style>
<g>
	<path class="st0" d="M7.2,28.6v-7.8c0-5.9,4.8-10.6,10.8-10.6c6,0,10.8,4.8,10.8,10.6v3.8v4c-0.5,0.7-4.4,1.9-10.8,1.9
		c-0.5,0-0.9,0-1.4,0l-0.1,0c-0.4,0-0.8,0-1.2,0C10.5,30.1,7.6,29.2,7.2,28.6z M30.4,24.8v-4C30.4,14,24.8,8.5,18,8.5
		C11.1,8.5,5.5,14,5.5,20.8v7.8c0,2.1,4.4,2.9,7.9,3.3c2,0.3,4.6,0.5,8,0.5c10.2,0,18.6,0,18.6-4C40,26.1,36.5,25.3,30.4,24.8z"/>
</g>
</svg>
