<?xml version="1.0" encoding="utf-8"?>
<!-- Generator: Adobe Illustrator 21.1.0, SVG Export Plug-In . SVG Version: 6.00 Build 0)  -->
<svg version="1.1" id="Layer_1" xmlns="http://www.w3.org/2000/svg" xmlns:xlink="http://www.w3.org/1999/xlink" x="0px" y="0px"
	 viewBox="0 0 55.8 45.8" style="enable-background:new 0 0 55.8 45.8;" xml:space="preserve">
<style type="text/css">
	.st0{fill:#00964E;}
</style>
<g>
	<g>
		<path class="st0" d="M14.6,24.4c-0.7,0-1.2,0.5-1.2,1.1V35c0,0.6,0.5,1.1,1.2,1.1h26.6c0.7,0,1.2-0.5,1.2-1.1v-9.5
			c0-0.6-0.5-1.1-1.2-1.1h-6.3c-0.5,0-0.9,0.3-1.1,0.7l-1.3,3.4h-9.3L22,25.2c-0.2-0.5-0.6-0.8-1.1-0.8H14.6z M40,33.9H15.8v-7.2H20
			l1.3,3.4c0.2,0.4,0.6,0.7,1.1,0.7h11c0.5,0,0.9-0.3,1.1-0.8l1.3-3.4H40V33.9z"/>
	</g>
	<g>
		<path class="st0" d="M26.7,13.5v9.7c0,0.6,0.5,1.1,1.2,1.1c0.6,0,1.2-0.5,1.2-1.1v-9.7l2.7,2.6c0.4,0.4,1.2,0.4,1.7,0
			c0.2-0.2,0.3-0.5,0.3-0.8c0-0.3-0.1-0.6-0.3-0.8L28.7,10c-0.1-0.1-0.1-0.1-0.2-0.1l-0.1-0.1c0,0-0.1,0-0.1-0.1
			c-0.1,0-0.2,0-0.2-0.1l-0.2,0c-0.1,0-0.2,0-0.2,0l-0.1,0c-0.1,0-0.1,0-0.1,0l-0.1,0c0,0-0.1,0-0.1,0.1l-0.1,0c0,0-0.1,0.1-0.1,0.1
			l-4.7,4.5C22.1,14.7,22,15,22,15.3c0,0.3,0.1,0.6,0.3,0.8c0.5,0.4,1.2,0.4,1.7,0l0,0L26.7,13.5z"/>
	</g>
</g>
</svg>
