<?xml version="1.0" encoding="utf-8"?>
<!-- Generator: Adobe Illustrator 19.2.0, SVG Export Plug-In . SVG Version: 6.00 Build 0)  -->
<svg version="1.1" id="Layer_1" xmlns="http://www.w3.org/2000/svg" xmlns:xlink="http://www.w3.org/1999/xlink" x="0px" y="0px"
	 viewBox="0 0 20.1 20" style="enable-background:new 0 0 20.1 20;" xml:space="preserve">
<style type="text/css">
	.st0{fill-rule:evenodd;clip-rule:evenodd;fill:#91C051;}
</style>
<g>
	<path class="st0" d="M18.9,1.5c-2.2,2.3-4.3,4.8-6.2,7.3c-1.9,2.5-3.7,5.1-5.3,7.7c-0.1,0.2-0.3,0.5-0.4,0.8
		c-0.6,1-1.3,1.6-2.4,1.6c-0.4,0-0.8-0.1-1.1-0.2c-0.3-0.1-0.5-0.3-0.8-0.6c-0.2-0.3-0.4-0.6-0.5-1c-0.2-0.4-0.4-1-0.6-1.8
		c0-0.1,0-0.1,0-0.2c-0.3-0.9-0.4-1.5-0.4-1.7c0-0.5,0.3-0.9,0.8-1.3c0.6-0.4,1.1-0.6,1.7-0.6c0.2,0,0.3,0,0.4,0.2
		c0.1,0.1,0.2,0.3,0.4,0.6c0.1,0.2,0.2,0.5,0.3,0.8c0.3,0.8,0.5,1.2,0.7,1.2c0.2,0,0.8-0.9,2-2.7c1.1-1.7,2.1-3.1,2.9-4.3
		c1.1-1.6,2-2.8,2.6-3.5c0.6-0.7,1.1-1.3,1.6-1.6c0.4-0.3,0.9-0.6,1.6-0.8c0.7-0.2,1.5-0.3,2.5-0.4L18.9,1.5z"/>
</g>
</svg>
