<?xml version="1.0" encoding="utf-8"?>
<!-- Generator: Adobe Illustrator 21.1.0, SVG Export Plug-In . SVG Version: 6.00 Build 0)  -->
<svg version="1.1" id="Layer_1" xmlns="http://www.w3.org/2000/svg" xmlns:xlink="http://www.w3.org/1999/xlink" x="0px" y="0px"
	 viewBox="0 0 32.3 31.4" style="enable-background:new 0 0 32.3 31.4;" xml:space="preserve">
<style type="text/css">
	.st0{fill-rule:evenodd;clip-rule:evenodd;fill:#FFFFFF;}
</style>
<g>
	<path class="st0" d="M4.7,21.9v-6c0-4.5,3.6-8.1,8-8.1c4.4,0,7.9,3.6,7.9,8.1v2.9v3c-0.4,0.5-3.2,1.4-7.9,1.4c-0.3,0-0.7,0-1,0
		h-0.1c-0.3,0-0.6,0-0.9,0C7.1,23.1,5,22.4,4.7,21.9z M21.8,19v-3c0-5.2-4.1-9.4-9.2-9.4c-5.1,0-9.2,4.2-9.2,9.4v6
		c0,1.6,3.2,2.2,5.9,2.5c1.5,0.3,3.4,0.4,5.9,0.4c7.6,0,13.7,0,13.7-3.1C28.9,20,26.3,19.4,21.8,19z"/>
</g>
</svg>
