<?xml version="1.0" encoding="utf-8"?>
<!-- Generator: Adobe Illustrator 21.1.0, SVG Export Plug-In . SVG Version: 6.00 Build 0)  -->
<svg version="1.1" id="Layer_1" xmlns="http://www.w3.org/2000/svg" xmlns:xlink="http://www.w3.org/1999/xlink" x="0px" y="0px"
	 viewBox="0 0 32.3 31.4" style="enable-background:new 0 0 32.3 31.4;" xml:space="preserve">
<style type="text/css">
	.st0{fill-rule:evenodd;clip-rule:evenodd;fill:#FFFFFF;}
</style>
<path class="st0" d="M23,15.1l0.2,3.4c0,0.5-0.3,1-0.9,1.4c-0.6,0.4-1.5,0.8-2.6,1c-1.1,0.2-2.3,0.4-3.6,0.4s-2.5-0.1-3.6-0.4
	c-1.1-0.2-2-0.6-2.6-1C9.3,19.4,9,19,9.1,18.5l0.2-3.4l6.3,2c0.2,0,0.3,0.1,0.5,0.1c0.2,0,0.4,0,0.5-0.1L23,15.1z M28.6,11.2
	c0.2,0.1,0.2,0.2,0.2,0.3c0,0.2-0.1,0.3-0.2,0.3l-12.4,3.8c0,0-0.1,0-0.1,0c0,0-0.1,0-0.1,0l-7.2-2.2c-0.3,0.2-0.6,0.6-0.8,1.2
	c-0.2,0.6-0.3,1.2-0.4,1.9c0.5,0.3,0.7,0.7,0.7,1.2c0,0.5-0.2,0.9-0.6,1.2l0.6,4.7c0,0.1,0,0.2-0.1,0.3C8.2,24,8.1,24,8,24H5.9
	c-0.1,0-0.2,0-0.3-0.1c-0.1-0.1-0.1-0.2-0.1-0.3l0.6-4.7c-0.4-0.3-0.6-0.7-0.6-1.2c0-0.5,0.2-0.9,0.7-1.2c0.1-1.5,0.4-2.7,1.1-3.6
	l-3.7-1.1c-0.2-0.1-0.2-0.2-0.2-0.3c0-0.2,0.1-0.3,0.2-0.3L16,7.4c0,0,0.1,0,0.1,0c0,0,0.1,0,0.1,0L28.6,11.2z"/>
</svg>
