<?xml version="1.0" encoding="utf-8"?>
<!-- Generator: Adobe Illustrator 19.1.0, SVG Export Plug-In . SVG Version: 6.00 Build 0)  -->
<svg version="1.1" id="Layer_1" xmlns="http://www.w3.org/2000/svg" xmlns:xlink="http://www.w3.org/1999/xlink" x="0px" y="0px"
	 viewBox="0 0 26.6 19.8" style="enable-background:new 0 0 26.6 19.8;" xml:space="preserve">
<style type="text/css">
	.st0{fill-rule:evenodd;clip-rule:evenodd;fill:#0EAA54;}
</style>
<path class="st0" d="M16.6,1.9c-0.1-0.1-0.2-0.2-0.5-0.2v4.1h4.2c-0.1-0.2-0.2-0.3-0.2-0.4L16.6,1.9z M17.2,14.1
	c0.1,0,0.2,0,0.3,0.1c0.1,0.1,0.1,0.1,0.1,0.2v0.7c0,0.1,0,0.2-0.1,0.2c-0.1,0.1-0.2,0.1-0.3,0.1H9.4c-0.1,0-0.2,0-0.3-0.1
	c-0.1-0.1-0.1-0.1-0.1-0.2v-0.7c0-0.1,0-0.2,0.1-0.2c0.1-0.1,0.1-0.1,0.3-0.1H17.2z M17.2,11.3c0.1,0,0.2,0,0.3,0.1
	c0.1,0.1,0.1,0.2,0.1,0.2v0.7c0,0.1,0,0.2-0.1,0.2c-0.1,0.1-0.2,0.1-0.3,0.1H9.4c-0.1,0-0.2,0-0.3-0.1c-0.1-0.1-0.1-0.2-0.1-0.2
	v-0.7c0-0.1,0-0.2,0.1-0.2c0.1-0.1,0.1-0.1,0.3-0.1H17.2z M9.1,8.9c0-0.1,0-0.2,0.1-0.2c0.1-0.1,0.1-0.1,0.3-0.1h7.8
	c0.1,0,0.2,0,0.3,0.1c0.1,0.1,0.1,0.1,0.1,0.2v0.7c0,0.1,0,0.2-0.1,0.2c-0.1,0.1-0.2,0.1-0.3,0.1H9.4c-0.1,0-0.2,0-0.3-0.1
	C9.1,9.8,9.1,9.7,9.1,9.6V8.9z M20.4,18.2V7.2h-4.6c-0.3,0-0.6-0.1-0.8-0.3c-0.2-0.2-0.3-0.4-0.3-0.7V1.6H6.2v16.6H20.4z M21.1,4.3
	c0.2,0.2,0.4,0.5,0.5,0.8c0.1,0.3,0.2,0.7,0.2,0.9v12.5c0,0.3-0.1,0.5-0.3,0.7c-0.2,0.2-0.5,0.3-0.8,0.3H5.9c-0.3,0-0.6-0.1-0.8-0.3
	c-0.2-0.2-0.3-0.5-0.3-0.7V1.3c0-0.3,0.1-0.5,0.3-0.7c0.2-0.2,0.4-0.3,0.8-0.3h9.9c0.3,0,0.6,0.1,1,0.2c0.4,0.1,0.6,0.3,0.8,0.5
	L21.1,4.3z"/>
</svg>
