<?xml version="1.0" encoding="utf-8"?>
<!-- Generator: Adobe Illustrator 19.1.0, SVG Export Plug-In . SVG Version: 6.00 Build 0)  -->
<svg version="1.1" id="Layer_1" xmlns="http://www.w3.org/2000/svg" xmlns:xlink="http://www.w3.org/1999/xlink" x="0px" y="0px"
	 viewBox="0 0 26.6 19.8" style="enable-background:new 0 0 26.6 19.8;" xml:space="preserve">
<style type="text/css">
	.st0{fill-rule:evenodd;clip-rule:evenodd;fill:#FFFFFF;}
</style>
<path class="st0" d="M20.2,9.3l0.2,3.4c0,0.5-0.3,1-0.9,1.4c-0.6,0.4-1.5,0.8-2.6,1s-2.3,0.4-3.6,0.4s-2.5-0.1-3.6-0.4
	c-1.1-0.2-2-0.6-2.6-1c-0.6-0.4-0.9-0.9-0.9-1.4l0.2-3.4l6.3,2c0.2,0.1,0.3,0.1,0.5,0.1c0.2,0,0.4,0,0.5-0.1L20.2,9.3z M25.8,5.4
	c0.2,0.1,0.2,0.2,0.2,0.3c0,0.2-0.1,0.3-0.2,0.3L13.4,9.9c0,0-0.1,0-0.1,0c0,0-0.1,0-0.1,0L6,7.7C5.7,7.9,5.4,8.3,5.2,8.9
	C5,9.4,4.9,10.1,4.8,10.8c0.5,0.3,0.7,0.7,0.7,1.2c0,0.5-0.2,0.9-0.6,1.2l0.6,4.7c0,0.1,0,0.2-0.1,0.3c-0.1,0.1-0.2,0.1-0.3,0.1H3.1
	c-0.1,0-0.2,0-0.3-0.1c-0.1-0.1-0.1-0.2-0.1-0.3l0.6-4.7c-0.4-0.3-0.6-0.7-0.6-1.2c0-0.5,0.2-0.9,0.7-1.2c0.1-1.5,0.4-2.7,1.1-3.6
	L0.8,6.1C0.7,6,0.6,5.9,0.6,5.8c0-0.2,0.1-0.3,0.2-0.3l12.4-3.8c0,0,0.1,0,0.1,0c0,0,0.1,0,0.1,0L25.8,5.4z"/>
</svg>
