<?xml version="1.0" encoding="utf-8"?>
<!-- Generator: Adobe Illustrator 19.1.0, SVG Export Plug-In . SVG Version: 6.00 Build 0)  -->
<svg version="1.1" id="Layer_1" xmlns="http://www.w3.org/2000/svg" xmlns:xlink="http://www.w3.org/1999/xlink" x="0px" y="0px"
	 viewBox="0 0 26.6 19.8" style="enable-background:new 0 0 26.6 19.8;" xml:space="preserve">
<style type="text/css">
	.st0{fill:#FFFFFF;}
</style>
<path class="st0" d="M22.5,0.2c0.1,0,0.3,0,0.4,0.1c0.2,0.2,0.3,0.4,0.3,0.7l-2.8,16.6c0,0.2-0.2,0.4-0.4,0.5
	c-0.1,0.1-0.2,0.1-0.3,0.1c-0.1,0-0.2,0-0.3-0.1l-5-2l-2.7,3.2c-0.1,0.2-0.3,0.2-0.5,0.2c-0.1,0-0.2,0-0.2,0c-0.1,0-0.2-0.1-0.3-0.3
	c-0.1-0.1-0.1-0.2-0.1-0.4v-3.8L20,3.7l-11.8,10l-4.4-1.8c-0.3-0.1-0.4-0.3-0.4-0.6c0-0.3,0.1-0.5,0.4-0.6L22.2,0.3
	C22.3,0.3,22.4,0.2,22.5,0.2z"/>
</svg>
