<?xml version="1.0" encoding="utf-8"?>
<!-- Generator: Adobe Illustrator 19.1.0, SVG Export Plug-In . SVG Version: 6.00 Build 0)  -->
<svg version="1.1" id="Layer_1" xmlns="http://www.w3.org/2000/svg" xmlns:xlink="http://www.w3.org/1999/xlink" x="0px" y="0px"
	 viewBox="0 0 26.6 19.8" style="enable-background:new 0 0 26.6 19.8;" xml:space="preserve">
<style type="text/css">
	.st0{fill-rule:evenodd;clip-rule:evenodd;fill:#FFFFFF;}
	.st1{fill:#FFFFFF;}
</style>
<g>
	<path class="st0" d="M21,16.8H5.6v-4.2H8l0.8,2.1c0.1,0.4,0.5,0.6,1,0.6h7.2c0.4,0,0.8-0.3,1-0.6l0.8-2.1H21V16.8z M22,10.7h-4.1
		c-0.4,0-0.8,0.3-1,0.6l-0.8,2.1h-5.8l-0.8-2.1c-0.1-0.4-0.5-0.6-1-0.6H4.6c-0.6,0-1,0.4-1,1v6.2c0,0.5,0.5,1,1,1H22
		c0.6,0,1-0.4,1-1v-6.2C23.1,11.1,22.6,10.7,22,10.7z"/>
	<path class="st1" d="M11,5.7l1.3-1.3v5.8c0,0.6,0.5,1,1,1c0.6,0,1-0.4,1-1V4.4l1.3,1.3C15.8,5.9,16.1,6,16.4,6s0.5-0.1,0.7-0.3
		c0.4-0.4,0.4-1,0-1.4l-3.1-3c-0.1-0.1-0.1-0.1-0.2-0.1l-0.1,0c0,0-0.1,0-0.1-0.1l-0.1,0c0,0-0.1,0-0.1,0c0,0-0.1,0-0.1,0
		c0,0-0.1,0-0.1,0c0,0-0.1,0-0.1,0c0,0,0,0-0.1,0c0,0-0.1,0-0.1,0l-0.1,0c-0.1,0-0.1,0-0.1,0.1l0,0c-0.1,0-0.1,0.1-0.2,0.1l-3.1,3
		c-0.4,0.4-0.4,1,0,1.4C9.9,6.1,10.6,6.1,11,5.7z"/>
</g>
</svg>
