<?xml version="1.0" encoding="utf-8"?>
<!-- Generator: Adobe Illustrator 21.1.0, SVG Export Plug-In . SVG Version: 6.00 Build 0)  -->
<svg version="1.1" id="Layer_1" xmlns="http://www.w3.org/2000/svg" xmlns:xlink="http://www.w3.org/1999/xlink" x="0px" y="0px"
	 viewBox="0 0 32.3 31.4" style="enable-background:new 0 0 32.3 31.4;" xml:space="preserve">
<style type="text/css">
	.st0{fill-rule:evenodd;clip-rule:evenodd;fill:#FFFFFF;}
</style>
<g>
	<path class="st0" d="M6.5,23.9H10v0.9H5.6v-4.5h0.9V23.9z M6.5,11H5.6V6.6H10v0.9H6.5V11z M8.7,9.7h2.9v12H8.7V9.7z M12.4,9.7h1.3
		v12h-1.3V9.7z M14.2,9.7h0.4v12h-0.4V9.7z M15.5,9.7h1.3v12h-1.3V9.7z M17.9,9.7h2.4v12h-2.4V9.7z M20.8,9.7h1.3v12h-1.3V9.7z
		 M25.8,7.5h-3.5V6.6h4.4V11h-0.9V7.5z M22.7,21.7v-12h0.9v12H22.7z M22.3,24.8v-0.9h3.5v-3.6h0.9v4.5H22.3z"/>
</g>
</svg>
